<svg width="84" height="77" viewBox="0 0 84 77" fill="none" xmlns="http://www.w3.org/2000/svg">
<g clip-path="url(#clip0_1_570)">
<path d="M67.095 0H15.975C7.15225 0 0 7.15225 0 15.975V60.705C0 69.5277 7.15225 76.68 15.975 76.68H67.095C75.9177 76.68 83.07 69.5277 83.07 60.705V15.975C83.07 7.15225 75.9177 0 67.095 0Z" fill="#FFD4D4"/>
<mask id="mask0_1_570" style="mask-type:luminance" maskUnits="userSpaceOnUse" x="12" y="12" width="59" height="59">
<path d="M70.29 12.78H12.78V70.29H70.29V12.78Z" fill="white"/>
</mask>
<g mask="url(#mask0_1_570)">
<path d="M50.2299 37.6188C48.969 37.6188 47.7836 37.1281 46.8925 36.2365C46.001 35.345 45.5096 34.1602 45.5096 32.8993C45.5096 31.6389 46.0003 30.4536 46.8925 29.562C47.7836 28.6704 48.969 28.1797 50.2299 28.1797C51.4901 28.1797 52.6755 28.6704 53.5671 29.562C55.4069 31.4025 55.4069 34.3967 53.5671 36.2365C52.6761 37.1281 51.4901 37.6188 50.2299 37.6188ZM50.2299 29.438C49.3049 29.438 48.436 29.798 47.7823 30.4517C47.1285 31.1055 46.7681 31.975 46.7681 32.8993C46.7681 33.8235 47.128 34.6932 47.7823 35.3469C48.436 36.0006 49.3049 36.3605 50.2299 36.3605C51.1542 36.3605 52.0237 36.0006 52.6774 35.3469C54.027 33.9971 54.027 31.8014 52.6774 30.4517C52.0237 29.798 51.1542 29.438 50.2299 29.438Z" fill="#331B3B"/>
<path d="M69.8451 17.0442C69.8457 16.7612 69.8438 16.4767 69.8368 16.1904C69.8338 16.0325 69.8274 15.874 69.8218 15.716C69.8149 15.5185 69.8085 15.3221 69.7985 15.1233C69.779 14.7439 69.7544 14.3639 69.7224 13.9813C69.6972 13.6749 69.4544 13.432 69.148 13.4062C68.7634 13.3741 68.3815 13.3496 68.0003 13.3301C67.8121 13.32 67.6252 13.315 67.4377 13.3081C67.2685 13.3018 67.0985 13.2955 66.93 13.2917C66.6551 13.2861 66.3819 13.2842 66.1095 13.2842C66.0617 13.2842 66.0145 13.2842 65.9667 13.2848C60.3964 13.3137 55.2868 14.7093 50.116 17.6005C50.1098 17.6042 50.1066 17.6112 50.1003 17.6149C45.9293 19.9373 41.7622 23.2216 37.444 27.5405C36.8871 28.0973 36.3398 28.6611 35.803 29.2292C35.7823 29.2287 35.7634 29.2198 35.742 29.2217L27.0925 29.8792C26.9717 29.8886 26.8553 29.9321 26.7589 30.0057L13.4654 40.12C13.2584 40.2773 13.1696 40.5454 13.2414 40.7944C13.3131 41.0443 13.5308 41.2242 13.7894 41.2475L26.4992 42.3945L31.6075 47.5023C29.9421 47.4923 28.069 48.2719 26.5715 49.7687C25.8932 50.447 25.349 51.2071 24.9526 52.0325C24.3977 53.2085 23.1631 56.2739 21.8557 59.52L21.2265 61.0822C21.1321 61.3164 21.1869 61.5843 21.365 61.7624C21.4851 61.8826 21.6461 61.9468 21.8097 61.9468C21.889 61.9468 21.969 61.9322 22.045 61.9014L23.6615 61.2503C26.8829 59.9528 29.9252 58.7278 31.0992 58.1741C31.9197 57.7791 32.6804 57.2354 33.3587 56.5565C34.5453 55.3699 35.3298 53.9126 35.5677 52.4528C35.6193 52.137 35.6375 51.8306 35.6362 51.5317L40.6164 56.5098L41.7641 69.2208C41.7873 69.4795 41.9673 69.6972 42.2171 69.7689C42.2743 69.7852 42.3334 69.7935 42.3908 69.7935C42.5839 69.7935 42.7708 69.7041 42.8916 69.545L53.0065 56.252C53.0795 56.1557 53.1242 56.0399 53.133 55.9191L53.7779 47.4388C54.3875 46.8656 54.9922 46.2817 55.5893 45.6845C59.9088 41.3652 63.1931 37.198 65.5162 33.0264C65.5194 33.0208 65.5256 33.0183 65.5288 33.0125C68.423 27.8368 69.8186 22.7234 69.8445 17.1436C69.8445 17.111 69.8445 17.0776 69.8451 17.0442ZM67.6025 24.6846C67.583 24.7583 67.5623 24.8311 67.5421 24.9047C66.9576 27.0107 66.0825 29.257 64.8122 31.6484L51.4807 18.3171C53.8685 17.0487 56.1122 16.1747 58.215 15.5902C58.2942 15.5688 58.3736 15.5461 58.4529 15.5248C58.6083 15.4826 58.7625 15.4442 58.9166 15.4058C61.9958 14.6458 65.1537 14.3903 68.5093 14.6206C68.7395 17.9724 68.4847 21.1284 67.7259 24.2046C67.6856 24.3637 67.646 24.5234 67.6025 24.6846ZM27.3732 31.1187L34.571 30.5719C33.2737 32.0096 32.0492 33.472 30.9048 34.9474L30.8985 34.9524C30.8493 35.0153 30.8048 35.0783 30.7564 35.1412C30.3875 35.6193 30.0252 36.0981 29.6747 36.5783C29.6042 36.6751 29.5375 36.7715 29.4677 36.8676C29.1367 37.3258 28.8095 37.7838 28.4962 38.2418C28.3654 38.4332 28.244 38.6225 28.1162 38.8132C27.8727 39.1768 27.6267 39.5412 27.3951 39.9048C27.1296 40.3201 26.8811 40.7321 26.6326 41.1437L15.5178 40.1395L27.3732 31.1187ZM28.6365 40.3024C28.7926 40.0615 28.9555 39.8187 29.1178 39.5763C29.2833 39.3278 29.4507 39.0787 29.6218 38.8302C29.8338 38.5225 30.0503 38.2135 30.2712 37.9046C30.3894 37.7384 30.5103 37.5731 30.6305 37.4076C30.8909 37.0496 31.154 36.6916 31.4263 36.3329C31.4371 36.319 31.4484 36.3045 31.4591 36.2908L46.8386 51.6701C46.8208 51.6833 46.8032 51.6972 46.7857 51.711C46.4339 51.9777 46.0828 52.2351 45.7318 52.4912C45.5599 52.6164 45.3882 52.741 45.2164 52.8637C44.912 53.0814 44.608 53.2941 44.3054 53.503C44.0487 53.6797 43.792 53.8522 43.5352 54.0227C43.3012 54.1794 43.0665 54.3372 42.833 54.4884C42.3285 54.8143 41.8238 55.1326 41.3217 55.4352L27.6933 41.8081C27.9948 41.3072 28.3119 40.8051 28.6365 40.3024ZM34.3263 52.2509C34.1306 53.4521 33.4713 54.6651 32.4695 55.6668C31.8914 56.2443 31.2471 56.7068 30.5581 57.0378C29.4218 57.5744 26.2544 58.8492 23.1914 60.0831L22.946 60.1819L23.0248 59.9862C24.2668 56.9019 25.5509 53.7125 26.0883 52.5742C26.4211 51.8803 26.8835 51.2367 27.4612 50.659C28.7108 49.4094 30.2485 48.7375 31.5655 48.7375C32.3702 48.7375 33.0925 48.9879 33.616 49.512C34.2578 50.1524 34.51 51.1247 34.3263 52.2509ZM51.8922 55.6384L42.8715 67.4925L41.8842 56.5584C42.3291 56.2916 42.7752 56.021 43.2244 55.7335C43.5787 55.5076 43.9329 55.2678 44.2872 55.0314C44.4878 54.8973 44.6874 54.7695 44.8886 54.6312C45.3347 54.3259 45.7802 54.0075 46.2257 53.6861C46.3365 53.6062 46.4465 53.53 46.5572 53.4495C47.0203 53.1116 47.4815 52.7618 47.9427 52.407C48.0207 52.3471 48.0988 52.2912 48.1768 52.2308C48.1793 52.2289 48.1806 52.225 48.1832 52.2231C49.6107 51.1159 51.0277 49.9349 52.4207 48.6834L51.8922 55.6384ZM54.6997 44.7949C52.4887 47.0058 50.1808 49.0534 47.8434 50.895L32.2336 35.2859C34.0753 32.9485 36.1227 30.6406 38.3343 28.4295C42.6771 24.0868 46.6705 21.0535 50.335 18.9513L64.1778 32.7943C62.0757 36.4587 59.0423 40.4523 54.6997 44.7949Z" fill="#331B3B"/>
</g>
</g>
<defs>
<clipPath id="clip0_1_570">
<rect width="83.07" height="76.68" fill="white"/>
</clipPath>
</defs>
</svg>
