<svg width="84" height="77" viewBox="0 0 84 77" fill="none" xmlns="http://www.w3.org/2000/svg">
<g clip-path="url(#clip0_1_523)">
<path d="M67.095 0H15.975C7.15225 0 0 7.15225 0 15.975V60.705C0 69.5277 7.15225 76.68 15.975 76.68H67.095C75.9177 76.68 83.07 69.5277 83.07 60.705V15.975C83.07 7.15225 75.9177 0 67.095 0Z" fill="#FFDED4"/>
<mask id="mask0_1_523" style="mask-type:luminance" maskUnits="userSpaceOnUse" x="17" y="14" width="49" height="49">
<path d="M65.4975 62.3025H17.5725V14.3775H65.4975V62.3025Z" fill="white"/>
</mask>
<g mask="url(#mask0_1_523)">
<path d="M41.535 61.9347C28.5248 61.9347 17.9402 51.3502 17.9402 38.34C17.9402 25.3298 28.5248 14.7451 41.535 14.7451C54.5452 14.7451 65.1297 25.3298 65.1297 38.34C65.1297 51.3502 54.5452 61.9347 41.535 61.9347ZM42.0593 46.8121C45.4559 46.8666 48.7487 47.4465 51.7421 48.4889C52.4882 45.583 52.9239 42.319 52.9643 38.8643H42.0593V46.8121ZM42.0593 47.8607V60.8599C46.0856 60.4997 49.5741 56.0141 51.4647 49.5018C48.5653 48.4836 45.3652 47.9152 42.0593 47.8607ZM41.0107 47.8607C37.7042 47.9152 34.5047 48.4836 31.6048 49.5023C33.4954 56.0141 36.9839 60.4997 41.0107 60.8599V47.8607ZM41.0107 46.8121V38.8643H30.1057C30.1461 42.319 30.5817 45.583 31.3279 48.4889C34.3213 47.4465 37.6141 46.8666 41.0107 46.8121ZM29.0571 38.8643H19.0019C19.1205 44.0122 20.9693 48.7379 23.9925 52.4812C25.8328 50.9952 27.9879 49.7693 30.36 48.8434C29.5625 45.8258 29.0989 42.4423 29.0571 38.8643ZM29.0571 37.8157C29.0984 34.2376 29.5625 30.8541 30.36 27.8361C27.9883 26.9102 25.8328 25.6842 23.993 24.1982C20.9693 27.942 19.1205 32.6677 19.0019 37.8157H29.0571ZM30.1057 37.8157H41.0107V29.8684C37.6141 29.8138 34.3213 29.2334 31.3279 28.191C30.5817 31.0969 30.1461 34.3607 30.1057 37.8157ZM41.0107 28.8197V15.82C36.9839 16.1802 33.4954 20.6659 31.6048 27.1781C34.5047 28.1963 37.7048 28.7647 41.0107 28.8197ZM42.0593 28.8197C45.3652 28.7652 48.5653 28.1968 51.4647 27.1785C49.5741 20.6659 46.0861 16.1802 42.0593 15.82V28.8197ZM42.0593 29.8684V37.8157H52.9643C52.9239 34.3607 52.4882 31.0969 51.7421 28.191C48.7487 29.2334 45.4559 29.8138 42.0593 29.8684ZM54.0124 37.8157H64.068C63.9495 32.6677 62.1007 27.942 59.077 24.1982C57.2365 25.6842 55.0816 26.9106 52.7095 27.8361C53.507 30.8545 53.971 34.2376 54.0124 37.8157ZM54.0124 38.8643C53.971 42.4423 53.507 45.8252 52.7095 48.8434C55.0816 49.7693 57.2365 50.9952 59.077 52.4812C62.1007 48.7374 63.949 44.0116 64.0676 38.8643H54.0124ZM58.399 53.2812C56.6708 51.8891 54.649 50.7372 52.4248 49.8584C50.9834 54.7075 48.6632 58.5025 45.8738 60.4629C50.8145 59.4956 55.1807 56.9096 58.399 53.2812ZM37.1962 60.4629C34.4068 58.5025 32.0866 54.7075 30.6452 49.8589C28.421 50.7377 26.3992 51.8896 24.671 53.2817C27.8888 56.9096 32.255 59.4956 37.1962 60.4629ZM24.6705 23.3987C26.3987 24.7908 28.42 25.9427 30.6447 26.8215C32.0861 21.9729 34.4061 18.1779 37.1957 16.2175C32.255 17.1843 27.8888 19.7703 24.6705 23.3987ZM45.8738 16.217C48.6632 18.1774 50.9834 21.9724 52.4248 26.8215C54.6495 25.9427 56.6708 24.7908 58.399 23.3987C55.1807 19.7703 50.8152 17.1843 45.8738 16.217Z" fill="black"/>
</g>
</g>
<defs>
<clipPath id="clip0_1_523">
<rect width="83.07" height="76.68" fill="white"/>
</clipPath>
</defs>
</svg>
